<svg width="480" height="480" xmlns="http://www.w3.org/2000/svg">
 <!-- Created with Method Draw - http://github.com/duopixel/Method-Draw/ -->
 <g>
  <title>background</title>
  <rect fill="#20bcd5" id="canvas_background" height="482" width="482" y="-1" x="-1"/>
  <g display="none" overflow="visible" y="0" x="0" height="100%" width="100%" id="canvasGrid">
   <rect fill="url(#gridpattern)" stroke-width="0" y="0" x="0" height="100%" width="100%"/>
  </g>
 </g>
 <g>
  <title>Layer 1</title>
  <text font-style="normal" font-weight="normal" stroke="#000" transform="matrix(9.203636169433594,0,0,8.356588959693909,-2042.7054061889648,-1318.6600867696106) " xml:space="preserve" text-anchor="start" font-family="Arvo, sans-serif" font-size="24" id="svg_7" y="198.975591" x="230.637692" fill-opacity="null" stroke-opacity="null" stroke-width="0" fill="#000000">M</text>
  <text stroke="#000" transform="matrix(5.93333339691162,0,0,4.810801683750719,-1833.4666891098022,-1015.1469014922058) " xml:space="preserve" text-anchor="start" font-family="Arvo, sans-serif" font-size="24" id="svg_8" y="282.458243" x="353.505618" fill-opacity="null" stroke-opacity="null" stroke-width="0" fill="#000000">d</text>
  <path id="svg_12" d="m321.934979,123.06958c-30.37589,0 -54.999978,19.028874 -54.999978,42.498476c0,8.019803 2.911089,15.514678 7.919523,21.916178l-7.919523,17.889545l22.050952,-5.82746c9.188837,5.323992 20.573971,8.523255 32.949023,8.523255c30.37587,0 55.000026,-19.028943 55.000026,-42.501518s-24.624155,-42.498476 -55.000026,-42.498476l0.000004,0zm-9.020296,58.819019l-9.185146,9.455717l-25.260267,-26.029591l25.256498,-26.035689l9.188915,9.477344l-16.071419,16.558345l16.071419,16.573874zm27.779468,9.443397l-9.181369,-9.468078l16.075846,-16.555262l-16.075846,-16.561538l9.181369,-9.468082l25.260302,26.011044l-25.260302,26.041916z" fill-opacity="null" stroke-opacity="null" stroke-width="0" stroke="#000" fill="#000000"/>
 </g>
</svg>